<svg width="98" height="28" viewBox="0 0 98 28" fill="none" xmlns="http://www.w3.org/2000/svg">
<path fill-rule="evenodd" clip-rule="evenodd" d="M7.53844 20.4614C3.37506 20.4614 -1.90735e-05 17.0864 -1.90735e-05 12.923C-1.90735e-05 8.75961 3.37506 5.38452 7.53844 5.38452C11.7018 5.38452 15.0769 8.75961 15.0769 12.923C15.0769 17.0864 11.7018 20.4614 7.53844 20.4614ZM7.53852 17.6345C4.9364 17.6345 2.82698 15.5251 2.82698 12.923C2.82698 10.3209 4.9364 8.21146 7.53852 8.21146C10.1406 8.21146 12.2501 10.3209 12.2501 12.923C12.2501 15.5251 10.1406 17.6345 7.53852 17.6345Z" fill="white"/>
<path d="M15.0769 0H11.8461V9.69231L15.0769 12.9231V0Z" fill="white"/>
<path fill-rule="evenodd" clip-rule="evenodd" d="M62.4615 20.4614C58.2982 20.4614 54.9231 17.0864 54.9231 12.923C54.9231 8.75961 58.2982 5.38452 62.4615 5.38452C66.6249 5.38452 70 8.75961 70 12.923C70 17.0864 66.6249 20.4614 62.4615 20.4614ZM62.4615 17.6345C59.8594 17.6345 57.75 15.5251 57.75 12.923C57.75 10.3209 59.8594 8.21146 62.4615 8.21146C65.0636 8.21146 67.1731 10.3209 67.1731 12.923C67.1731 15.5251 65.0636 17.6345 62.4615 17.6345Z" fill="white"/>
<path fill-rule="evenodd" clip-rule="evenodd" d="M30.1538 5.3845C25.9904 5.3845 22.6153 8.75959 22.6153 12.923C22.6153 17.0863 25.9904 20.4614 30.1538 20.4614C34.3172 20.4614 37.6923 17.0863 37.6923 12.923C37.6923 8.75959 34.3172 5.3845 30.1538 5.3845ZM30.1538 8.21151C27.5517 8.21151 25.4423 10.3209 25.4423 12.923C25.4423 15.5252 27.5517 17.6346 30.1538 17.6346C32.7559 17.6346 34.8654 15.5252 34.8654 12.923C34.8654 10.3209 32.7559 8.21151 30.1538 8.21151Z" fill="white"/>
<path fill-rule="evenodd" clip-rule="evenodd" d="M37.6923 12.923V20.4616C37.6923 24.6249 34.3172 28 30.1538 28C28.8206 28 27.5682 27.6539 26.4816 27.0467L28 24.7691L28.2123 24.3677C28.8073 24.6261 29.4639 24.7694 30.1539 24.7694C32.8479 24.7694 35.0318 22.5855 35.0318 19.8916V15.1411L36.6154 12.923H37.6923Z" fill="white"/>
<rect x="17.2308" y="5.38452" width="3.23077" height="15.0769" fill="white"/>
<rect x="72.1539" width="3.23077" height="20.4615" fill="white"/>
<rect x="77.5385" width="3.23077" height="20.4615" fill="white"/>
<rect x="39.8461" y="5.38452" width="3.23077" height="15.0769" fill="white"/>
<rect x="17.2308" width="3.23077" height="3.23077" fill="white"/>
<rect x="39.8461" width="3.23077" height="3.23077" fill="white"/>
<rect x="46.3077" y="5.38452" width="6.46154" height="3.23077" fill="white"/>
<path fill-rule="evenodd" clip-rule="evenodd" d="M47.8915 -5.14984e-05H45.2308V12.923C45.2308 17.0864 48.6059 20.4615 52.7692 20.4615C53.8505 20.4615 54.8786 20.2338 55.8083 19.8238L54.049 17.0613C53.6412 17.1719 53.2121 17.2309 52.7693 17.2309C50.0753 17.2309 47.8915 15.047 47.8915 12.3531V-5.14984e-05Z" fill="white"/>
<path d="M66.7692 15.6154L70 12.9231V20.4616H66.7692V15.6154Z" fill="white"/>
<path fill-rule="evenodd" clip-rule="evenodd" d="M82.923 5.38473V12.923C82.923 17.0864 86.2981 20.4615 90.4615 20.4615C94.6249 20.4615 98 17.0864 98 12.923V5.38473H95.3393V12.3531C95.3393 15.047 93.1554 17.2309 90.4615 17.2309C87.7675 17.2309 85.5837 15.047 85.5837 12.3531V5.38473H82.923Z" fill="white"/>
<path fill-rule="evenodd" clip-rule="evenodd" d="M98 12.923V20.4616C98 24.6249 94.6249 28 90.4615 28C89.1283 28 87.8759 27.6539 86.7893 27.0467L88.3077 24.7691L88.52 24.3677C89.115 24.6261 89.7715 24.7694 90.4616 24.7694C93.1555 24.7694 95.3394 22.5855 95.3394 19.8916V15.1412L96.9231 12.923H98Z" fill="white"/>
</svg>
